<svg width="24" height="24" viewBox="0 0 36 36" fill="none" xmlns="http://www.w3.org/2000/svg">
<path d="M8.325 26.4375C9.9 25.3375 11.4625 24.4937 13.0125 23.9062C14.5625 23.3188 16.225 23.025 18 23.025C19.775 23.025 21.4438 23.3188 23.0062 23.9062C24.5687 24.4937 26.1375 25.3375 27.7125 26.4375C28.8125 25.0875 29.5938 23.725 30.0563 22.35C30.5188 20.975 30.75 19.525 30.75 18C30.75 14.375 29.5312 11.3438 27.0938 8.90625C24.6562 6.46875 21.625 5.25 18 5.25C14.375 5.25 11.3438 6.46875 8.90625 8.90625C6.46875 11.3438 5.25 14.375 5.25 18C5.25 19.525 5.4875 20.975 5.9625 22.35C6.4375 23.725 7.225 25.0875 8.325 26.4375ZM18 19.125C16.55 19.125 15.3313 18.6312 14.3438 17.6437C13.3562 16.6562 12.8625 15.4375 12.8625 13.9875C12.8625 12.5375 13.3562 11.3187 14.3438 10.3312C15.3313 9.34375 16.55 8.85 18 8.85C19.45 8.85 20.6688 9.34375 21.6562 10.3312C22.6437 11.3187 23.1375 12.5375 23.1375 13.9875C23.1375 15.4375 22.6437 16.6562 21.6562 17.6437C20.6688 18.6312 19.45 19.125 18 19.125ZM18 33C15.95 33 14.0125 32.6062 12.1875 31.8187C10.3625 31.0312 8.76875 29.9562 7.40625 28.5938C6.04375 27.2313 4.96875 25.6375 4.18125 23.8125C3.39375 21.9875 3 20.05 3 18C3 15.925 3.39375 13.9813 4.18125 12.1688C4.96875 10.3563 6.04375 8.76875 7.40625 7.40625C8.76875 6.04375 10.3625 4.96875 12.1875 4.18125C14.0125 3.39375 15.95 3 18 3C20.075 3 22.0187 3.39375 23.8312 4.18125C25.6437 4.96875 27.2313 6.04375 28.5938 7.40625C29.9562 8.76875 31.0312 10.3563 31.8187 12.1688C32.6062 13.9813 33 15.925 33 18C33 20.05 32.6062 21.9875 31.8187 23.8125C31.0312 25.6375 29.9562 27.2313 28.5938 28.5938C27.2313 29.9562 25.6437 31.0312 23.8312 31.8187C22.0187 32.6062 20.075 33 18 33ZM18 30.75C19.375 30.75 20.7188 30.55 22.0312 30.15C23.3438 29.75 24.6375 29.05 25.9125 28.05C24.6375 27.15 23.3375 26.4625 22.0125 25.9875C20.6875 25.5125 19.35 25.275 18 25.275C16.65 25.275 15.3125 25.5125 13.9875 25.9875C12.6625 26.4625 11.3625 27.15 10.0875 28.05C11.3625 29.05 12.6562 29.75 13.9688 30.15C15.2812 30.55 16.625 30.75 18 30.75ZM18 16.875C18.85 16.875 19.5437 16.6062 20.0812 16.0687C20.6187 15.5312 20.8875 14.8375 20.8875 13.9875C20.8875 13.1375 20.6187 12.4438 20.0812 11.9062C19.5437 11.3687 18.85 11.1 18 11.1C17.15 11.1 16.4563 11.3687 15.9188 11.9062C15.3813 12.4438 15.1125 13.1375 15.1125 13.9875C15.1125 14.8375 15.3813 15.5312 15.9188 16.0687C16.4563 16.6062 17.15 16.875 18 16.875Z" fill="currentColor"/>
</svg>
